# xmcd
# 
# Track frame offsets:
#     150
#     42082
#     76690
#     104822
#     135497
#     158722
#     189200
#     228262
#     252870
#     282805
# 
# Disc length: 4017
# 
# Revision: 3
# Processed by: cddbd v1.5.2PL0 Copyright (c) Steve Scherf et al.
# Submitted via: BonkEnc v1.0.8
# 
DISCID=740faf0a
DTITLE=Phil Upchurch - Darkness, Darkness
DYEAR=1971
DGENRE=Fusion
TTITLE0=Darkness, Darkness
TTITLE1=Fire And Rain
TTITLE2=What We Call The Blues
TTITLE3=Cold Sweat
TTITLE4=Please Send Me Someone To Love
TTITLE5=Inner City Blues
TTITLE6=You've Got A Friend
TTITLE7=Love And Peace
TTITLE8=Sweet Chariot
TTITLE9=Sausalito Blues
EXTD=
EXTT0=
EXTT1=
EXTT2=
EXTT3=
EXTT4=
EXTT5=
EXTT6=
EXTT7=
EXTT8=
EXTT9=
PLAYORDER=
